<svg version="1" xmlns="http://www.w3.org/2000/svg" width="1066.667" height="1066.667" viewBox="0 0 800.000000 800.000000"><path d="M224.9 98.4c-.2.2-2.2.6-4.4 1-10.9 1.6-20 4.2-33 9.4-8.7 3.4-11.7 4.9-23.5 11.5-33.9 19-64.5 54.2-79.3 91.3-3.3 8.2-8.5 25.9-9.2 30.9-.1 1.1-.6 4.5-1 7.5-3.3 24.9-2.4 46.7 3.1 74 3.6 17.6 13.1 45.5 21.2 61.5 1.9 3.8 8.9 14.4 15.6 23.5 11 15 24.3 33 26.3 35.5.4.5 6 8 12.3 16.5 6.3 8.5 11.9 15.9 12.3 16.5.4.5 7.3 9.8 15.2 20.5 7.9 10.7 14.8 20 15.2 20.5 5.6 7.1 18.1 24.5 17.4 24.3-.5-.2-3.1 1.7-5.7 4.2-2.7 2.5-8 7.4-11.9 11-3.8 3.5-9.2 8.4-12 11-2.7 2.5-10.6 9.7-17.5 16-6.9 6.2-12.7 11.6-13 11.9-.3.3-5 4.6-10.5 9.6-5.5 4.9-11.2 10.1-12.6 11.5-2.4 2.3-13.1 12.1-27.9 25.5-3 2.7-8.2 7.5-11.5 10.6-3.3 3-8.7 8-12 11-3.3 3-7.6 7-9.6 8.9-2 1.9-6.9 6.4-10.8 9.8-3.9 3.5-9.9 9-13.3 12.1l-6.2 5.8h146.2c106.4 0 146-.3 145.5-1.1s-.3-.8.8 0c1 .9 34 1.1 122.4 1.1 111.2 0 121.8-.1 131.5-1.8 35.1-5.9 68.1-23.6 94.9-50.9 7.4-7.5 19-21.8 24.9-30.6 3.8-5.7 12.2-22.2 12.2-24 0-.4 1.1-3.6 2.5-7 8.2-20.5 12.8-46.6 12.9-72.9.2-36.9-5.7-63.4-21.3-95.5-7.3-15-3.3-9-53.6-81-9.4-13.5-19.3-27.7-22-31.5-20.1-28.9-35.2-50.4-36.9-52.8l-2.1-2.8 6.1-5.7c3.3-3.1 10.9-10.2 16.9-15.7 5.9-5.5 13.8-12.8 17.4-16.1 3.6-3.4 8.2-7.6 10.1-9.4 4-3.7 23.1-21.4 33.5-31.1 3.8-3.6 9.7-9 12.9-12 3.3-3 7.2-6.5 8.6-7.9 1.4-1.4 7.5-7 13.5-12.5s12.1-11.1 13.5-12.5c3.6-3.4 22.1-20.5 27.8-25.7l4.7-4.3H626.1c-128.7 0-135.3.1-134 1.7 1.3 1.7 1.2 1.7-.7 0-2-1.6-9.5-1.7-134.1-1.7-72.6 0-132.2.2-132.4.4zm274.2 11.3c1.3 1.6 1.2 1.7-.3.4-1-.7-1.8-1.5-1.8-1.7 0-.8.8-.3 2.1 1.3zm5.4 7.9c.9 1.5 1.2 2.3.6 2-1.1-.7-3.5-4.6-2.8-4.6.3 0 1.2 1.2 2.2 2.6zm3.6 5.1c1.3 1.6 1.2 1.7-.3.4-1-.7-1.8-1.5-1.8-1.7 0-.8.8-.3 2.1 1.3zm6 8.8c.7 1.4.4 1.2-1.1-.5-1.1-1.4-2.5-3.4-3.1-4.5-.7-1.4-.4-1.2 1.1.5 1.1 1.4 2.5 3.4 3.1 4.5zm3 4.2c1.3 1.6 1.2 1.7-.3.4-1-.7-1.8-1.5-1.8-1.7 0-.8.8-.3 2.1 1.3zm5 7c1.3 1.6 1.2 1.7-.3.4-1-.7-1.8-1.5-1.8-1.7 0-.8.8-.3 2.1 1.3zm3.4 4.9c.9 1.5 1.2 2.3.6 2-1.1-.7-3.5-4.6-2.8-4.6.3 0 1.2 1.2 2.2 2.6zm5.6 8.1c1.3 1.6 1.2 1.7-.3.4-1-.7-1.8-1.5-1.8-1.7 0-.8.8-.3 2.1 1.3zm3.9 5.4c1.5 2.8.5 2.3-1.5-.7-.9-1.5-1.2-2.3-.6-2 .6.4 1.6 1.6 2.1 2.7zm4 5.9c1.2 1.6 1.9 3 1.6 3-.2 0-1.4-1.4-2.6-3-1.2-1.7-1.9-3-1.6-3 .2 0 1.4 1.3 2.6 3zm10.1 14.2c1.5 2.8.5 2.1-2.1-1.5-1.5-2-1.7-2.7-.6-1.8.9.8 2.2 2.3 2.7 3.3zm3 4.5c1.3 1.6 1.2 1.7-.3.4-1-.7-1.8-1.5-1.8-1.7 0-.8.8-.3 2.1 1.3zm3.9 5.4c1.5 2.8.5 2.3-1.5-.7-.9-1.5-1.2-2.3-.6-2 .6.4 1.6 1.6 2.1 2.7zm3.1 4.6c1.3 1.6 1.2 1.7-.3.4-1-.7-1.8-1.5-1.8-1.7 0-.8.8-.3 2.1 1.3zm3.4 4.9c.9 1.5 1.2 2.3.6 2-1.1-.7-3.5-4.6-2.8-4.6.3 0 1.2 1.2 2.2 2.6zm6.5 9.4c1.2 1.6 1.9 3 1.6 3-.2 0-1.4-1.4-2.6-3-1.2-1.7-1.9-3-1.6-3 .2 0 1.4 1.3 2.6 3zm6.1 8.7c1.3 1.6 1.2 1.7-.3.4-1-.7-1.8-1.5-1.8-1.7 0-.8.8-.3 2.1 1.3zm5.5 8c1.5 2 2.3 3.3 1.6 2.9-1.3-.8-5.6-6.6-4.9-6.6.3 0 1.7 1.7 3.3 3.7zm8.5 12c1.3 1.6 1.2 1.7-.3.4-1.7-1.3-2.2-2.1-1.4-2.1.2 0 1 .8 1.7 1.7zm3.4 4.9c.9 1.5 1.2 2.3.6 2-1.1-.7-3.5-4.6-2.8-4.6.3 0 1.2 1.2 2.2 2.6zm-65.6 57.7c-3.7 3.3-62.9 54-66.3 56.7-1 .8-2.3 1.9-3 2.5-.6.5-4 3.5-7.6 6.5-3.6 3-7 6-7.6 6.6-.7.6-2.5 2.1-4.1 3.5-1.6 1.3-3.2 3-3.7 3.7-.7 1.2 5.9 9.5 36.9 46.7 5.5 6.6 11.6 14 13.5 16.4 3.9 4.8 6.1 7.4 9.3 11.1 1.2 1.4 3.8 4.5 5.7 7 1.9 2.5 3.7 4.7 4 5 .3.3 5.9 7 12.5 15s12.8 15.4 13.7 16.4c1 1.1 1.6 2.2 1.3 2.4-.5.6-262.7 1-263.7.5-.7-.3 23.7-19.8 54.2-43.2 4.7-3.6 8.7-6.8 9-7.1.3-.3 8.5-6.8 18.3-14.4 11.2-8.7 17.4-14.2 17-14.9-.7-1.1-27.8-38.7-32.3-44.7-13.6-18.4-37.9-53.4-43.5-62.8-.5-.9-2.8-4.4-5-7.7-2.3-3.3-4.4-6.6-4.8-7.3-.7-.9 24.5-1.2 124.5-1.2h125.3l-3.6 3.3zM216.1 545.7c1.3 1.6 1.2 1.7-.3.4-1-.7-1.8-1.5-1.8-1.7 0-.8.8-.3 2.1 1.3zm9 12c1.3 1.6 1.2 1.7-.3.4-1-.7-1.8-1.5-1.8-1.7 0-.8.8-.3 2.1 1.3zm3 4c1.3 1.6 1.2 1.7-.3.4-1-.7-1.8-1.5-1.8-1.7 0-.8.8-.3 2.1 1.3zm5 7c1.3 1.6 1.2 1.7-.3.4-1-.7-1.8-1.5-1.8-1.7 0-.8.8-.3 2.1 1.3zm5.4 7.3c1 1.1 1.6 2 1.3 2-.3 0-1.3-.9-2.3-2-1-1.1-1.6-2-1.3-2 .3 0 1.3.9 2.3 2zm6.6 8.7c1.3 1.6 1.2 1.7-.3.4-1-.7-1.8-1.5-1.8-1.7 0-.8.8-.3 2.1 1.3zm6 8c1.3 1.6 1.2 1.7-.3.4-1-.7-1.8-1.5-1.8-1.7 0-.8.8-.3 2.1 1.3zm5.4 7.3c1 1.1 1.6 2 1.3 2-.3 0-1.3-.9-2.3-2-1-1.1-1.6-2-1.3-2 .3 0 1.3.9 2.3 2zm5.6 7.7c1.3 1.6 1.2 1.7-.3.4-1.7-1.3-2.2-2.1-1.4-2.1.2 0 1 .8 1.7 1.7zm6 8c1.3 1.6 1.2 1.7-.3.4-1.7-1.3-2.2-2.1-1.4-2.1.2 0 1 .8 1.7 1.7zm8.4 11.3c1 1.1 1.6 2 1.3 2-.3 0-1.3-.9-2.3-2-1-1.1-1.6-2-1.3-2 .3 0 1.3.9 2.3 2zm15.5 21c.6 1.1.8 2 .6 2-.3 0-1-.9-1.6-2-.6-1.1-.8-2-.6-2 .3 0 1 .9 1.6 2zm11.1 14.7c1.3 1.6 1.2 1.7-.3.4-1.7-1.3-2.2-2.1-1.4-2.1.2 0 1 .8 1.7 1.7zm9 12c1.3 1.6 1.2 1.7-.3.4-1.7-1.3-2.2-2.1-1.4-2.1.2 0 1 .8 1.7 1.7zm4 6c1.3 1.6 1.2 1.7-.3.4-1-.7-1.8-1.5-1.8-1.7 0-.8.8-.3 2.1 1.3zm12.4 16.3c1 1.1 1.6 2 1.3 2-.3 0-1.3-.9-2.3-2-1-1.1-1.6-2-1.3-2 .3 0 1.3.9 2.3 2z"/></svg>